<?xml version="1.0" encoding="utf-8"?>
<!-- Generator: Adobe Illustrator 22.0.1, SVG Export Plug-In . SVG Version: 6.00 Build 0)  -->
<svg version="1.1" id="레이어_1" xmlns="http://www.w3.org/2000/svg" xmlns:xlink="http://www.w3.org/1999/xlink" x="0px"
	 y="0px" viewBox="0 0 24 24" style="enable-background:new 0 0 24 24;" xml:space="preserve">
<style type="text/css">
	.st0{fill:#FFFFFF;}
</style>
<title>jQuery</title>
<g>
	<path class="st0" d="M22.8,17c-0.2,0.5-0.5,0.9-0.8,1.3c-0.9,1.2-1.9,2.3-3.3,3c-2,1.1-4.1,1.5-6.4,1.4c-2.7-0.1-5.1-1.2-7.2-2.8
		c-1.8-1.4-3.1-3.2-3.9-5.3c-0.8-2-1-4.2-0.4-6.3c0.3-1.1,0.8-2.1,1.6-3C2.8,5,3.1,4.7,3.4,4.3c0.1,0.1,0,0.2,0,0.3
		c-0.9,2.3-0.9,4.6,0,6.9c1.3,3.6,3.8,6,7.2,7.5c2.5,1.1,5.1,1.3,7.8,0.6c1.7-0.4,3.1-1.2,4.3-2.5c0,0,0,0,0.1-0.1
		C22.7,17.1,22.7,17.1,22.8,17z"/>
	<path class="st0" d="M9.2,2.5c0.1,0.1,0,0.3,0,0.4C8.5,4.8,8.7,6.6,9.6,8.4c1.6,3.2,4.3,5,7.9,5.3c2.2,0.2,4.1-0.5,5.7-2.1
		c0,0,0.1-0.1,0.1-0.1c0,0,0,0,0.1,0c0.1,0.2,0,0.3-0.1,0.4c-1.2,2.2-3,3.4-5.4,3.8c-2,0.3-4,0.1-5.8-0.9c-2-1.2-3.6-2.8-4.3-5.1
		C6.9,7,7.3,4.6,9.2,2.5z"/>
	<path class="st0" d="M14.1,1.2c-0.6,2.5,0.3,4.4,2.2,5.8c1.9,1.4,4.1,1.7,6.2,0.3c0,0.3-0.2,0.4-0.4,0.6c-0.7,0.8-1.7,1.3-2.8,1.4
		c-2.9,0.4-5.7-1.7-6.3-4.5C12.8,3.5,13.2,2.3,14.1,1.2z"/>
</g>
</svg>
